<?xml version="1.0" encoding="UTF-8"?>
<svg width="26px" height="26px" viewBox="0 0 26 26" version="1.1" xmlns="http://www.w3.org/2000/svg" xmlns:xlink="http://www.w3.org/1999/xlink">
    <!-- Generator: Sketch 58 (84663) - https://sketch.com -->
    <title>Group 12</title>
    <desc>Created with Sketch.</desc>
    <g id="Page-1" stroke="none" stroke-width="1" fill="none" fill-rule="evenodd">
        <g id="No-Account---Step-3" transform="translate(-885.000000, -571.000000)">
            <g id="Group-2" transform="translate(885.000000, 568.000000)">
                <g id="Group" transform="translate(0.000000, 3.000000)">
                    <g id="Bitmap">
                        <g id="Group-14" transform="translate(0.782987, 0.782987)">
                            <g id="Group-12">
                                <circle id="Oval" stroke="#FFFFFF" stroke-width="1.5" cx="11.950893" cy="11.950893" r="11.950893"></circle>
                                <g id="Group-13" transform="translate(6.617013, 5.717013)" fill="#FFFFFF" fill-rule="nonzero">
                                    <path d="M3.23929629,5.08928571 C3.03582853,5.36899084 2.92732472,5.72864902 2.92732472,6.10771495 C2.92732472,6.48912936 3.03717788,6.84857292 3.23750481,7.12350111 L10.4741872,7.11294225 C10.8831726,7.11294225 11.2122084,6.66080192 11.2122084,6.10771495 C11.2122084,5.55462798 10.8831726,5.10248765 10.4741872,5.10248765 L3.23929629,5.08928571 Z M8.6373215,7.12350111 C8.8577449,6.84379598 8.9752907,6.4841378 8.9752907,6.10507188 C8.9752907,5.72365747 8.85628311,5.36421391 8.63926227,5.08928571 L0.799523022,5.09984458 C0.3564555,5.09984458 0,5.55198491 0,6.10507188 C0,6.65815885 0.3564555,7.11029917 0.799523022,7.11029917 L8.6373215,7.12350111 Z" id="Path"></path>
                                    <path d="M3.23929629,5.08928571 C3.03582853,5.36899084 2.92732472,5.72864902 2.92732472,6.10771495 C2.92732472,6.48912936 3.03717788,6.84857292 3.23750481,7.12350111 L10.4741872,7.11294225 C10.8831726,7.11294225 11.2122084,6.66080192 11.2122084,6.10771495 C11.2122084,5.55462798 10.8831726,5.10248765 10.4741872,5.10248765 L3.23929629,5.08928571 Z M8.6373215,7.12350111 C8.8577449,6.84379598 8.9752907,6.4841378 8.9752907,6.10507188 C8.9752907,5.72365747 8.85628311,5.36421391 8.63926227,5.08928571 L0.799523022,5.09984458 C0.3564555,5.09984458 0,5.55198491 0,6.10507188 C0,6.65815885 0.3564555,7.11029917 0.799523022,7.11029917 L8.6373215,7.12350111 Z" id="Path" transform="translate(5.606104, 6.106393) rotate(90.000000) translate(-5.606104, -6.106393) "></path>
                                </g>
                            </g>
                        </g>
                    </g>
                </g>
            </g>
        </g>
    </g>
</svg>