<?xml version="1.0" encoding="UTF-8"?>
<svg width="39px" height="39px" viewBox="0 0 39 39" version="1.1" xmlns="http://www.w3.org/2000/svg" xmlns:xlink="http://www.w3.org/1999/xlink">
    <!-- Generator: Sketch 58 (84663) - https://sketch.com -->
    <title>Group 12</title>
    <desc>Created with Sketch.</desc>
    <g id="Page-1" stroke="none" stroke-width="1" fill="none" fill-rule="evenodd">
        <g id="Signed-in---Manage-Links" transform="translate(-1211.000000, -190.000000)">
            <g id="Group-12" transform="translate(1211.000000, 190.000000)">
                <rect id="Mask" fill="#FFFFFF" x="0" y="0" width="38.699999" height="38.699999" rx="19.3499995"></rect>
                <g id="delete" transform="translate(10.800000, 8.100000)" fill="#049FF9" fill-rule="nonzero">
                    <path d="M6.61454513,1.29615446 L10.4756306,1.29615446 L10.7256307,4.5 L12.1199997,4.5 L11.8699996,1.21162265 C11.8701759,0.543559235 11.2857077,0 10.5672843,0 L6.5228915,0 C5.80446802,0 5.21999986,0.543559235 5.21999986,1.21162265 L5.32545455,3.5999999 L6.71999986,3.5999999 L6.61454513,1.29615446 Z" id="Path"></path>
                    <path d="M14.629649,6.82272709 L2.47049202,6.82272709 C2.13732185,6.82272709 1.87504239,7.10343242 1.90189247,7.43151485 L2.91842994,19.8459345 C2.97507708,20.5389662 3.56037609,21.0727267 4.26355346,21.0727267 L12.8364238,21.0727267 C13.5396013,21.0727267 14.1249003,20.5389662 14.1815474,19.8457728 L15.1980849,7.43151485 C15.2250987,7.10343242 14.9628192,6.82272709 14.629649,6.82272709 L14.629649,6.82272709 Z M5.4146688,18.8487964 C5.40108007,18.849478 5.3874913,18.849887 5.37406624,18.849887 C5.03451098,18.849887 4.74947442,18.6297244 4.72835455,18.3437176 L4.09132007,9.75137986 C4.06938156,9.45405818 4.34099306,9.19817887 4.69790266,9.17991149 C5.05366621,9.16191678 5.3622784,9.38753228 5.3842169,9.68499031 L6.02108768,18.277328 C6.04318989,18.5746497 5.7715784,18.8303927 5.4146688,18.8487964 L5.4146688,18.8487964 Z M9.20495053,18.310566 C9.20495053,18.6082964 8.9150024,18.8497252 8.55727421,18.8497252 C8.19954602,18.8497252 7.90959789,18.6082964 7.90959789,18.310566 L7.90959789,9.71810058 C7.90959789,9.4202339 8.19954602,9.17880511 8.55727421,9.17880511 C8.91483869,9.17880511 9.20495053,9.4202339 9.20495053,9.71810058 L9.20495053,18.310566 Z M13.008821,9.74986343 L12.4006012,18.3421932 C12.3804637,18.628745 12.094936,18.8497253 11.7547258,18.8497253 C11.7419557,18.8497253 11.7290218,18.8494527 11.7160879,18.8489074 C11.3590146,18.8313217 11.0865845,18.5761242 11.1077044,18.2788028 L11.7157605,9.68633672 C11.7367166,9.38901532 12.0422181,9.16217313 12.4002738,9.17975884 C12.7573471,9.19720824 13.0297772,9.45254203 13.008821,9.74986343 L13.008821,9.74986343 Z" id="Shape"></path>
                    <path d="M17.0715131,4.73763419 L16.6358282,3.42809421 C16.5209537,3.08288549 16.198634,2.84999992 15.8355633,2.84999992 L1.26426856,2.84999992 C0.901365521,2.84999992 0.5788782,3.08288549 0.464171326,3.42809421 L0.0284864218,4.73763419 C-0.0555313219,4.99019316 0.053809149,5.24779651 0.257900171,5.37626196 C0.341079425,5.42855609 0.439519399,5.45999986 0.547685959,5.45999986 L16.5523136,5.45999986 C16.6604801,5.45999986 16.7590878,5.42855609 16.8420994,5.37609378 C17.0461904,5.24762838 17.1555309,4.99002498 17.0715131,4.73763419 Z" id="Path"></path>
                </g>
            </g>
        </g>
    </g>
</svg>