<?xml version="1.0" encoding="UTF-8"?>
<svg width="17px" height="17px" viewBox="0 0 17 17" version="1.1" xmlns="http://www.w3.org/2000/svg" xmlns:xlink="http://www.w3.org/1999/xlink">
    <!-- Generator: Sketch 58 (84663) - https://sketch.com -->
    <title>Group 12</title>
    <desc>Created with Sketch.</desc>
    <g id="Page-1" stroke="none" stroke-width="1" fill="none" fill-rule="evenodd">
        <g id="Signed-in---Step-3" transform="translate(-884.000000, -465.000000)" fill="#FFFFFF" fill-rule="nonzero">
            <g id="Group-9" transform="translate(884.000000, 459.000000)">
                <g id="tick" transform="translate(0.000000, 6.000000)">
                    <g id="Group-12">
                        <path d="M11.7264901,6.46673126 C11.5291804,6.25272072 11.2002308,6.24329499 10.9918552,6.4467724 L7.67429356,9.6831732 L6.09191048,8.01195948 C5.89149632,7.80044701 5.56289722,7.79581141 5.35710029,8.00199292 C5.15147862,8.20796841 5.14714737,8.546342 5.34738627,8.75785446 L7.28748547,10.8068187 C7.38915716,10.9142618 7.52427711,10.9684211 7.65974757,10.9684211 C7.78828302,10.9684211 7.91681848,10.9195927 8.01746369,10.8217814 L11.7071121,7.22243828 C11.9153125,7.01929566 11.9241253,6.68092208 11.7264901,6.46673126 Z" id="Path"></path>
                        <path d="M8.5,0 C3.81304688,0 0,3.81304688 0,8.5 C0,13.1869531 3.81304688,17 8.5,17 C13.1869531,17 17,13.1869531 17,8.5 C17,3.81304688 13.1869531,0 8.5,0 Z M8.5,15.6216387 C4.57323242,15.6216387 1.37836133,12.4270332 1.37836133,8.5 C1.37836133,4.57323242 4.57319922,1.37836133 8.5,1.37836133 C12.427,1.37836133 15.6216387,4.57319922 15.6216387,8.5 C15.6216387,12.427 12.427,15.6216387 8.5,15.6216387 Z" id="Shape"></path>
                    </g>
                </g>
            </g>
        </g>
    </g>
</svg>