<?xml version="1.0" encoding="UTF-8"?>
<svg width="17px" height="17px" viewBox="0 0 17 17" version="1.1" xmlns="http://www.w3.org/2000/svg" xmlns:xlink="http://www.w3.org/1999/xlink">
    <!-- Generator: Sketch 58 (84663) - https://sketch.com -->
    <title>Shape</title>
    <desc>Created with Sketch.</desc>
    <g id="Page-1" stroke="none" stroke-width="1" fill="none" fill-rule="evenodd">
        <g id="Signed-in---Step-3" transform="translate(-884.000000, -544.000000)" fill="#9BD6FC" fill-rule="nonzero">
            <g id="Group-9" transform="translate(884.000000, 459.000000)">
                <g id="tick" transform="translate(0.000000, 85.000000)">
                    <path d="M8.5,0 C3.81304688,0 0,3.81304688 0,8.5 C0,13.1869531 3.81304688,17 8.5,17 C13.1869531,17 17,13.1869531 17,8.5 C17,3.81304688 13.1869531,0 8.5,0 Z M8.5,15.6216387 C4.57323242,15.6216387 1.37836133,12.4270332 1.37836133,8.5 C1.37836133,4.57323242 4.57319922,1.37836133 8.5,1.37836133 C12.427,1.37836133 15.6216387,4.57319922 15.6216387,8.5 C15.6216387,12.427 12.427,15.6216387 8.5,15.6216387 Z" id="Shape"></path>
                </g>
            </g>
        </g>
    </g>
</svg>