<?xml version="1.0" encoding="UTF-8"?>
<svg width="19px" height="19px" viewBox="0 0 19 19" version="1.1" xmlns="http://www.w3.org/2000/svg" xmlns:xlink="http://www.w3.org/1999/xlink">
    <!-- Generator: Sketch 58 (84663) - https://sketch.com -->
    <title>copy</title>
    <desc>Created with Sketch.</desc>
    <g id="Page-1" stroke="none" stroke-width="1" fill="none" fill-rule="evenodd">
        <g id="No-Account---Step-5" transform="translate(-1173.000000, -543.000000)" fill="#FFFFFF" fill-rule="nonzero">
            <g id="Group-5" transform="translate(921.000000, 530.000000)">
                <g id="copy" transform="translate(252.000000, 13.000000)">
                    <path d="M12.0100319,5.18846154 L1.80150655,5.18846154 C0.806561222,5.18846154 0,5.99502276 0,6.98996808 L0,17.1984935 C0,18.1934388 0.806561222,19 1.80150655,19 L12.0100319,19 C13.0049772,19 13.8115385,18.1934388 13.8115385,17.1984935 L13.8115385,6.98996808 C13.8115385,5.99502276 13.0049772,5.18846154 12.0100319,5.18846154 Z M12.6105458,17.1985286 C12.6105458,17.5301888 12.3416921,17.7990425 12.0100319,17.7990425 L1.80150655,17.7990425 C1.46984638,17.7990425 1.20099264,17.5301888 1.20099264,17.1985286 L1.20099264,6.98996808 C1.20099264,6.65830791 1.46984638,6.38945417 1.80150655,6.38945417 L12.0100319,6.38945417 C12.3416921,6.38945417 12.6105458,6.65830791 12.6105458,6.98996808 L12.6105458,17.1985286 Z" id="Shape"></path>
                    <path d="M17.1913462,2.23820962e-13 L6.33942308,2.23820962e-13 C5.3405304,2.23820962e-13 4.53076923,0.809759197 4.53076923,1.80864943 C4.53076923,2.14162462 4.80068962,2.41154435 5.13366562,2.41154435 C5.46664162,2.41154435 5.73652669,2.14162462 5.73652669,1.80864943 C5.73652669,1.47567424 6.00644708,1.20575451 6.33942308,1.20575451 L17.1913462,1.20575451 C17.5243222,1.20575451 17.7942425,1.47567424 17.7942425,1.80864943 L17.7942425,12.660546 C17.7942425,12.9935212 17.5243222,13.2634409 17.1913462,13.2634409 C16.8583702,13.2634409 16.5884498,13.5333607 16.5884498,13.8663359 C16.5884498,14.199311 16.8583702,14.4692308 17.1913462,14.4692308 C18.1902388,14.4692308 19,13.6594716 19,12.6605813 L19,1.80864943 C19,0.809759197 18.1902388,2.23820962e-13 17.1913462,2.23820962e-13 Z" id="Path"></path>
                </g>
            </g>
        </g>
    </g>
</svg>