<?xml version="1.0" encoding="UTF-8"?>
<svg width="65px" height="65px" viewBox="0 0 65 65" version="1.1" xmlns="http://www.w3.org/2000/svg" xmlns:xlink="http://www.w3.org/1999/xlink">
    <!-- Generator: Sketch 58 (84663) - https://sketch.com -->
    <title>Group 4</title>
    <desc>Created with Sketch.</desc>
    <g id="Page-1" stroke="none" stroke-width="1" fill="none" fill-rule="evenodd">
        <g id="Downloaded-files" transform="translate(-1034.000000, -499.000000)">
            <g id="Group-4" transform="translate(1036.000000, 501.000000)">
                <circle id="Oval" stroke="#FFFFFF" stroke-width="3.97672893" fill="#FFFFFF" cx="30.2231399" cy="30.2231399" r="30.2231399"></circle>
                <path d="M30.1023757,23.1514796 C31.0510488,22.2339779 31.0875014,20.7186701 30.1845512,19.7561184 C29.2708908,18.7820887 27.7427095,18.7438085 26.7816936,19.6720871 L18.0130882,28.1529718 C17.3523524,28.8241347 17,29.6871479 17,30.5967307 C17,31.5119488 17.3567342,32.374447 18.0072706,33.0341475 L26.7815967,41.5202847 C27.2320839,41.9564222 27.8269801,42.1932 28.4419787,42.1932 C29.0969031,42.1932 29.7280383,41.9244891 30.1855158,41.43634 C31.0880066,40.4742781 31.0515485,38.9594807 30.1028883,38.0419916 L27.5750999,35.6075073 C26.9741766,35.028765 26.9561954,34.072457 27.5349378,33.4715337 C27.819693,33.1758649 28.2125114,33.0088111 28.6230057,33.0088111 L41.5074813,33.0088111 L41.5074813,33.0088111 C42.8356097,33.0088111 43.904112,31.9238835 43.904112,30.5967307 C43.904112,29.2695779 42.8356097,28.1846503 41.5074813,28.1846503 L28.6330512,28.1846503 C27.7987542,28.1846503 27.1224228,27.508319 27.1224228,26.6740219 C27.1224228,26.2646229 27.2885892,25.8727557 27.5828753,25.588145 L30.1023757,23.1514796 L30.1023757,23.1514796 Z" id="Path" fill="#049EF9" fill-rule="nonzero" transform="translate(30.452056, 30.596600) rotate(-90.000000) translate(-30.452056, -30.596600) "></path>
            </g>
        </g>
    </g>
</svg>