<?xml version="1.0" encoding="UTF-8"?>
<svg width="65px" height="65px" viewBox="0 0 65 65" version="1.1" xmlns="http://www.w3.org/2000/svg" xmlns:xlink="http://www.w3.org/1999/xlink">
    <!-- Generator: Sketch 58 (84663) - https://sketch.com -->
    <title>Group 12</title>
    <desc>Created with Sketch.</desc>
    <g id="Page-1" stroke="none" stroke-width="1" fill="none" fill-rule="evenodd">
        <g id="No-Account---Step-1" transform="translate(-1034.000000, -499.000000)">
            <g id="Group-12" transform="translate(1036.000000, 501.000000)">
                <circle id="Oval" stroke="#FFFFFF" stroke-width="3.97672893" fill="#FFFFFF" cx="30.2231399" cy="30.2231399" r="30.2231399"></circle>
                <g id="add" transform="translate(17.000000, 17.000000)" fill="#009DF9" fill-rule="nonzero">
                    <path d="M24.5892851,11.0892854 L16.3928567,11.0892854 C16.1265952,11.0892854 15.9107139,10.8734041 15.9107139,10.6071426 L15.9107139,2.41071422 C15.9107139,1.07940669 14.8313072,0 13.5,0 C12.1686921,0 11.0892854,1.07940669 11.0892854,2.41071422 L11.0892854,10.6071426 C11.0892854,10.8734041 10.8734041,11.0892854 10.6071426,11.0892854 L2.41071422,11.0892854 C1.07940669,11.0892854 0,12.1686921 0,13.5 C0,14.8313072 1.07940669,15.9107139 2.41071422,15.9107139 L10.6071426,15.9107139 C10.8734041,15.9107139 11.0892854,16.1265952 11.0892854,16.3928567 L11.0892854,24.5892851 C11.0892854,25.9205926 12.1686921,27 13.5,27 C14.8313072,27 15.9107139,25.9205926 15.9107139,24.5892851 L15.9107139,16.3928567 C15.9107139,16.1265952 16.1265952,15.9107139 16.3928567,15.9107139 L24.5892851,15.9107139 C25.9205926,15.9107139 27,14.8313072 27,13.5 C27,12.1686921 25.9205926,11.0892854 24.5892851,11.0892854 Z" id="Path"></path>
                </g>
            </g>
        </g>
    </g>
</svg>