<?xml version="1.0" encoding="UTF-8"?>
<svg width="639px" height="826px" viewBox="0 0 639 826" version="1.1" xmlns="http://www.w3.org/2000/svg" xmlns:xlink="http://www.w3.org/1999/xlink">
    <!-- Generator: Sketch 58 (84663) - https://sketch.com -->
    <title>Send bg</title>
    <desc>Created with Sketch.</desc>
    <g id="Page-1" stroke="none" stroke-width="1" fill="none" fill-rule="evenodd" opacity="0.029334" stroke-linecap="square">
        <g id="No-Account---Step-1" transform="translate(-742.000000, -54.000000)" stroke="#000000" stroke-width="2.6">
            <g id="Send-bg" transform="translate(742.000000, 56.000000)">
                <path d="M50.4471778,72.9363481 L50.4471778,84.5462006 C50.4471778,86.1973288 49.4326639,87.6787869 47.8932019,88.2756797 L31,94.82565 L31,82.5090868 C31,80.8037054 32.0812377,79.2858659 33.6930142,78.7286386 L50.4471778,72.9363481 Z M31,51 L47.9003241,57.5898999 C49.4360427,58.1887187 50.4471778,59.6682723 50.4471778,61.3166096 L50.4471778,61.3166096 L50.4471778,72.9363481 L33.5468537,66.3464482 C32.011135,65.7476294 31,64.2680757 31,62.6197385 L31,62.6197385 L31,51 Z" id="Combined-Shape" transform="translate(40.723589, 72.912825) rotate(-37.000000) translate(-40.723589, -72.912825) "></path>
                <path d="M356.447178,21.6803554 L356.447178,31.8145098 C356.447178,33.4656381 355.432664,34.9470961 353.893202,35.5439889 L339,41.318503 L339,30.5616492 C339,28.8562678 340.081238,27.3384284 341.693014,26.7812011 L356.447178,21.6803554 Z M339,2 L353.900324,7.8100451 C355.436043,8.40886392 356.447178,9.8884176 356.447178,11.5367549 L356.447178,11.5367549 L356.447178,21.6803554 L341.546854,15.8703103 C340.011135,15.2714915 339,13.7919378 339,12.1436005 L339,12.1436005 L339,2 Z" id="Combined-Shape" transform="translate(347.723589, 21.659251) rotate(11.000000) translate(-347.723589, -21.659251) "></path>
                <path d="M605.447178,575.680355 L605.447178,585.81451 C605.447178,587.465638 604.432664,588.947096 602.893202,589.543989 L588,595.318503 L588,584.561649 C588,582.856268 589.081238,581.338428 590.693014,580.781201 L605.447178,575.680355 Z M588,556 L602.900324,561.810045 C604.436043,562.408864 605.447178,563.888418 605.447178,565.536755 L605.447178,565.536755 L605.447178,575.680355 L590.546854,569.87031 C589.011135,569.271491 588,567.791938 588,566.143601 L588,566.143601 L588,556 Z" id="Combined-Shape" transform="translate(596.723589, 575.659251) rotate(11.000000) translate(-596.723589, -575.659251) "></path>
                <path d="M635.447178,130.680355 L635.447178,140.81451 C635.447178,142.465638 634.432664,143.947096 632.893202,144.543989 L618,150.318503 L618,139.561649 C618,137.856268 619.081238,136.338428 620.693014,135.781201 L635.447178,130.680355 Z M618,111 L632.900324,116.810045 C634.436043,117.408864 635.447178,118.888418 635.447178,120.536755 L635.447178,120.536755 L635.447178,130.680355 L620.546854,124.87031 C619.011135,124.271491 618,122.791938 618,121.143601 L618,121.143601 L618,111 Z" id="Combined-Shape" transform="translate(626.723589, 130.659251) rotate(11.000000) translate(-626.723589, -130.659251) "></path>
                <path d="M21.447178,582.680355 L21.447178,592.81451 C21.447178,594.465638 20.4326642,595.947096 18.8932021,596.543989 L4,602.318503 L4,591.561649 C4,589.856268 5.08123771,588.338428 6.69301419,587.781201 L21.447178,582.680355 Z M4,563 L18.9003243,568.810045 C20.436043,569.408864 21.447178,570.888418 21.447178,572.536755 L21.447178,572.536755 L21.447178,582.680355 L6.54685366,576.87031 C5.011135,576.271491 4,574.791938 4,573.143601 L4,573.143601 L4,563 Z" id="Combined-Shape" transform="translate(12.723589, 582.659251) scale(-1, 1) rotate(-12.000000) translate(-12.723589, -582.659251) "></path>
                <path d="M516.447178,778.680355 L516.447178,788.81451 C516.447178,790.465638 515.432664,791.947096 513.893202,792.543989 L499,798.318503 L499,787.561649 C499,785.856268 500.081238,784.338428 501.693014,783.781201 L516.447178,778.680355 Z M499,759 L513.900324,764.810045 C515.436043,765.408864 516.447178,766.888418 516.447178,768.536755 L516.447178,768.536755 L516.447178,778.680355 L501.546854,772.87031 C500.011135,772.271491 499,770.791938 499,769.143601 L499,769.143601 L499,759 Z" id="Combined-Shape" transform="translate(507.723589, 778.659251) scale(-1, 1) rotate(-12.000000) translate(-507.723589, -778.659251) "></path>
                <path d="M238.447178,789.832324 L238.447178,806.60712 C238.447178,808.258249 237.432664,809.739707 235.893202,810.336599 L212,819.600667 L212,801.82512 C212,800.119738 213.081238,798.601899 214.693014,798.044672 L238.447178,789.832324 Z M212,760 L235.900324,769.319392 C237.436043,769.918211 238.447178,771.397764 238.447178,773.046102 L238.447178,773.046102 L238.447178,789.832324 L214.546854,780.512932 C213.011135,779.914113 212,778.434559 212,776.786222 L212,776.786222 L212,760 Z" id="Combined-Shape" transform="translate(225.223589, 789.800334) rotate(-12.000000) translate(-225.223589, -789.800334) "></path>
                <path d="M588.34166,303.731523 L606.81138,311.028254 C608.338373,311.631515 609.34166,313.106621 609.34166,314.748458 L609.34166,314.748458 L609.34166,327.349523 L609.554385,327.279403 L609.554385,339.590482 C609.554385,341.25494 608.52366,342.74545 606.966347,343.332989 L588.554385,350.279403 L588.554385,337.218536 C588.554385,335.500878 589.650994,333.974978 591.279002,333.42731 L608.81966,327.525523 L590.871939,320.434793 C589.408571,319.856668 588.426176,318.477838 588.34685,316.918899 L588.34166,316.714588 L588.34166,303.731523 Z" id="Combined-Shape" transform="translate(598.948022, 327.005463) rotate(-12.000000) translate(-598.948022, -327.005463) "></path>
            </g>
        </g>
    </g>
</svg>